<?xml version="1.0" encoding="utf-8"?>
<!-- Generator: Adobe Illustrator 27.1.1, SVG Export Plug-In . SVG Version: 6.00 Build 0)  -->
<svg version="1.1" id="Layer_2_00000140718978076800657030000011033381534786294923_"
	 xmlns="http://www.w3.org/2000/svg" xmlns:xlink="http://www.w3.org/1999/xlink" x="0px" y="0px" viewBox="0 0 358.5 236.1"
	 style="enable-background:new 0 0 358.5 236.1;" xml:space="preserve">
<style type="text/css">
	.st0{fill:#FFFFFF;stroke:#000000;stroke-miterlimit:10;}
	.st1{fill:#231F20;}
	.st2{fill:#58595B;}
	.st3{fill:#222D3E;}
	.st4{fill:#006FBA;}
</style>
<rect x="5.2" y="4.6" class="st0" width="350.8" height="225.4"/>
<g id="Layer_1-2">
	<g>
		<polygon class="st1" points="0,0 0,236.1 0,0 		"/>
		<polygon class="st2" points="358.4,236.1 358.5,236.1 358.5,0 		"/>
		<path class="st3" d="M0,0v236.1h358.4V0H0z M42.9,226.1h-0.3c-1.8,0.9-3.6,1.2-5.8,1.2l0,0c-2.5,0-4.7-0.8-6.4-2.4
			c-2.4-2.2-3.2-6.5-1.8-9.7c1.5-3.7,5.2-5,8.2-5s2.4,0.2,3.5,0.6c0.8,0.3,1.5,0.6,2.1,1.1l0.4,0.3l-1.8,1.9l-0.3-0.2
			c-1-0.9-2.5-1.3-4-1.3s-1.7,0.2-2.4,0.5c-2.2,0.9-3.7,3.3-3.7,5.9c0,2.6,1.5,4.9,3.7,5.8c0.7,0.3,1.6,0.5,2.7,0.5s2.4-0.2,3.3-0.6
			h0.1v-4.6h-3.5V218h6v8.3V226.1z M81.4,226.9l-3.9-7.1H75v7.1h-2.6v-16.3h0.5c0.4,0,0.9,0,1.4,0c0.6,0,1.3,0,1.9,0
			c1.3,0,3.1,0,4,0.3c2.3,0.5,3.8,2.2,3.7,4.3c0,1.2-0.3,2.1-1,2.8s-1.6,1.2-2.7,1.5h-0.3l4.4,7.4h-3.1H81.4z M127,226.9l-1.5-3.8
			H118l-1.5,3.8h-2.9l7.1-16.3h2.3l7,16.3H127z M170.1,217.5c-0.3,0.6-0.8,1.1-1.3,1.4c-1.5,1-3.5,1.1-5.2,1.1h-1.7
			c0,1.3,0,5.1,0,6.5v0.4h-2.6v-16.3h5.2c3,0,4.8,0.8,5.7,2.5C170.8,214.3,170.8,216.4,170.1,217.5L170.1,217.5z M213.5,226.9h-2.6
			v-7.4h-8.2v7.4h-2.6v-16.3h2.6v6.7h8.2v-6.7h2.6V226.9z M245.6,226.9H243v-16.3h2.6V226.9z M289.7,225c-1.4,1.5-3.5,2.3-5.9,2.3
			s-2.4-0.2-3.5-0.6c-2-0.7-3.6-2.3-4.4-4.3c-1-2.3-1-4.9,0-7.2c1.2-3,4.4-5,8.1-5s3.4,0.5,4.8,1.4c0.3,0.2,0.5,0.4,0.7,0.6l0.3,0.3
			l-2,1.5l-0.3-0.3c-0.9-0.9-2.2-1.4-3.6-1.4s-1.7,0.2-2.4,0.5c-2.2,1-3.7,3.3-3.7,5.8c0,1.7,0.7,3.5,1.9,4.7c1,1.1,2.4,1.6,4,1.6
			h0.2c1.5,0,2.8-0.6,3.8-1.6l0.2-0.3l2.1,1.4l-0.3,0.4L289.7,225z M330,224.4c-0.6,1.3-1.7,2.1-3.1,2.6c-0.7,0.2-1.5,0.3-2.3,0.3
			c-2,0-3.9-0.7-5.1-1.8l-0.3-0.3l1.8-1.7l0.3,0.3c0.4,0.4,0.8,0.7,1.3,0.9c0.7,0.3,1.4,0.5,2.1,0.5s0.7,0,1.1-0.1
			c1.3-0.3,2.1-1.3,2.1-2.5c0-0.5-0.1-0.9-0.3-1.2c-0.5-0.8-1.3-1.1-2.1-1.4c-0.3-0.1-0.7-0.2-1.1-0.4c-1.1-0.4-2.3-0.7-3.2-1.5
			c-0.4-0.3-0.7-0.8-0.9-1.3c-0.5-1.1-0.5-3,0.1-4c1-1.6,2.9-2.6,5.3-2.6s1.8,0.2,2.6,0.4c0.6,0.2,1.2,0.5,1.7,0.9l0.4,0.3l-1.6,1.8
			l-0.3-0.3c-0.8-0.7-1.8-1.1-2.9-1.1s-2.2,0.5-2.7,1.3l0,0c-0.3,0.5-0.4,1.1-0.2,1.7c0.1,0.6,0.5,1,0.9,1.3c0.6,0.4,1.3,0.6,2,0.8
			c0.1,0,0.2,0,0.4,0.1c0.5,0.2,1.1,0.4,1.7,0.6c1.3,0.5,2.1,1.2,2.7,2.1c0.6,1,0.6,3,0,4.2L330,224.4z M353.2,200.6H5.2V4.6h348
			v196.1V200.6z"/>
		<path class="st3" d="M81.1,216.5c0.5-0.7,0.5-1.9,0-2.6c-0.5-0.8-1.6-1.2-3.2-1.2H75v5.1h2.6C78.9,217.8,80.3,217.6,81.1,216.5
			L81.1,216.5z"/>
		<polygon class="st3" points="118.7,220.8 124.4,220.8 121.6,213.3 		"/>
		<path class="st3" d="M166.8,213.1c-0.8-0.4-1.9-0.5-2.8-0.5h-0.6c-0.4,0-0.9,0-1.1,0h-0.4v0.3v4.8h2.3c1,0,2.7,0,3.6-1.3
			c0.4-0.6,0.4-2,0-2.6c-0.2-0.3-0.5-0.6-0.9-0.8L166.8,213.1z"/>
		<polygon class="st4" points="265.5,46.3 320.6,122.6 331.4,122.7 332.6,16.7 318,16.5 317.2,90 263.4,15.9 250.6,15.7 
			249.4,121.7 264.7,121.9 		"/>
		<path class="st4" d="M57.1,109.7c-17.2,0.5-22-11-22.6-19.5c0-0.2-17.2-0.7-17.2-0.7c-0.2,10,4.7,18.5,8.6,22.6
			c13.2,14,39.8,15.4,54.1,2.7c8.5-7.3,10.5-19.4,6.7-30.3C81,68.1,62.2,64.6,47.4,56.6c-7.5-4-11.7-11.7-8-19.8
			c2.7-6.2,9.3-10.4,16.1-10.3c7-0.2,16.2,3.2,16,14.9c0,0,15.8,0.1,15.8,0.6C89.2,13.5,52,7.2,34.8,19.6
			c-9.3,6.7-14.2,21-10.1,31.9c4.8,12.1,17.2,18.1,27.9,22.3c12.3,4.8,19.5,11.7,20,18.9c0.5,7.7-4.6,16.7-15.3,17L57.1,109.7z"/>
		<rect x="103.5" y="16.5" class="st4" width="15" height="107.3"/>
		<path class="st4" d="M205.3,117.5c19.7-6.8,32.9-29.1,31.6-51.7h-48v13c4.8,0,33.8,0,33.8,0c-1.4,9-7.1,17.4-14.3,22.7
			c-19.2,14.6-48,6.5-57.5-18.1c-10-25.9,9-55.3,34.9-54.7c8.8,0,17.3,3.5,23.4,9.5l9.7-10c-10.5-8.9-22.9-13.1-36.3-12.6
			c-27.8,0.3-49.1,25.1-48.4,52.9C133.8,107.2,169.5,130,205.3,117.5L205.3,117.5z"/>
		<g>
			<path class="st4" d="M331.7,130.2l-2.9-1.2c0,0-0.1,0-0.2,0h-8.8c-0.2,0-0.4,0.2-0.4,0.4v36.8l-25.8-36c0,0-0.1-0.1-0.2-0.2
				l-2.8-1.2c0,0-0.1,0-0.2,0H283c-0.2,0-0.4,0.2-0.4,0.5v62.9c0,0.2,0.2,0.4,0.5,0.4h0.2l2.5,1c0,0,0.1,0,0.2,0h8.9
				c0.2,0,0.4-0.2,0.4-0.4v-37.6l27,36.8c0,0,0.1,0.1,0.2,0.1l2.8,1.1c0,0,0.1,0,0.2,0h6.2c0.2,0,0.4-0.2,0.4-0.4v-62.8
				c0-0.2-0.1-0.3-0.3-0.4L331.7,130.2z M285.1,131.5h4.5l31.5,44c0.1,0.2,0.3,0.2,0.5,0.2s0.3-0.2,0.3-0.4v-43.7h5v58.8h-3.2
				l-32.8-44.5c-0.1-0.2-0.3-0.2-0.5-0.2s-0.3,0.2-0.3,0.4v44.3H285v-58.8L285.1,131.5z"/>
			<path class="st4" d="M61.1,130.8c-2.1-0.8-7.3-2.3-11.8-2.3H49c-8.9,0.1-16.5,3.2-22.6,9.3c-6.2,6.2-9.4,13.8-9.4,22.5
				s3,16.9,8.9,22.8c3.6,3.6,7.6,6.1,11.8,7.6l0.3,0.2c4,1.8,8.5,2.8,13.4,2.8c8.6,0,16.2-3.3,22.7-9.7c6.2-6.2,9.3-13.8,9.3-22.6
				s-3.1-16.3-9.3-22.5C70.2,135.1,64.8,132.2,61.1,130.8L61.1,130.8z M78.4,160.4c0,8-2.8,15-8.6,20.8c-5.8,5.7-12.7,8.6-20.8,8.6
				s-6.8-0.5-9.9-1.6c-4-1.4-7.7-3.8-10.9-7c-5.7-5.7-8.6-12.7-8.6-20.8s2.9-15,8.6-20.8c5.5-5.5,12.3-8.2,20.7-8.2
				s8.9,1.1,12.9,2.9c3.3,1.5,6.2,4.1,8.5,6.2c3.9,3.7,8.2,12.6,8.2,19.8L78.4,160.4z"/>
			<path class="st4" d="M59.7,138.1c-3.2-1.6-6.8-2.4-10.6-2.4c-6.8,0-12.6,2.4-17.4,7.2c-4.8,4.9-7.5,11.2-7.5,17.7
				s2.3,12.4,7.1,17.2l0,0c2.8,2.8,6.5,5.1,10,6.3c2.3,0.8,4.7,1.1,7.7,1.1c6.4,0,12.4-2.6,17.4-7.6c4.8-4.8,7.2-10.6,7.2-17.4
				s-2.4-12.6-7.2-17.4s-4.3-3.7-6.7-4.9V138.1z M49.1,182.4c-2.5,0-4.9-0.4-7-1.1c-2.2-1.1-4.2-2.5-6-4.3
				c-4.3-4.3-6.5-9.6-6.5-15.6s2.2-11.3,6.5-15.6c4.1-4.1,8.4-5.8,14.9-6.1c0,0,0.2,0,0.3,0c3.7,0,9.9,2.3,13.4,5.8
				c4.3,4.2,6.2,8.9,6.2,15.1S69,171.8,64.8,176C60.5,180.3,55.3,182.4,49.1,182.4L49.1,182.4z"/>
			<path class="st4" d="M258.4,131c-2.1-0.8-7.3-2.3-11.8-2.3h-0.2c-9,0.1-16.4,3.2-22.6,9.3c-6.2,6.2-9.4,13.8-9.4,22.5
				s3,16.9,8.9,22.8c3.6,3.6,7.6,6.1,11.8,7.6l0.3,0.2c4,1.8,8.5,2.8,13.4,2.8c8.6,0,16.2-3.3,22.7-9.7c6.2-6.2,9.3-13.8,9.3-22.6
				s-3.1-16.3-9.3-22.5C267.6,135.3,262.2,132.4,258.4,131z M275.7,160.6c0,8-2.8,15-8.6,20.8c-5.8,5.7-12.7,8.6-20.8,8.6
				s-6.8-0.5-9.9-1.6c-4-1.4-7.7-3.8-11-7c-5.7-5.7-8.6-12.7-8.6-20.8s2.9-15,8.6-20.8c5.5-5.5,12.3-8.2,20.7-8.2s8.9,1.1,12.9,2.9
				c3.3,1.5,6.3,4.1,8.5,6.2c3.9,3.7,8.2,12.6,8.2,19.8V160.6z"/>
			<path class="st4" d="M256.9,138.4c-3.2-1.6-6.8-2.4-10.6-2.4c-6.8,0-12.6,2.4-17.4,7.2c-4.8,4.9-7.5,11.2-7.5,17.7
				s2.3,12.4,7.1,17.2c2.8,2.8,6.5,5.1,10,6.3c2.3,0.8,4.8,1.1,7.7,1.1c6.4,0,12.4-2.6,17.4-7.6c4.8-4.8,7.2-10.6,7.2-17.4
				s-2.4-12.6-7.2-17.4s-4.3-3.7-6.7-4.9V138.4z M246.3,182.7c-2.5,0-4.9-0.4-7-1.1c-2.2-1.1-4.2-2.5-6-4.3
				c-4.3-4.3-6.4-9.6-6.4-15.6s2.2-11.3,6.4-15.6c4.1-4.1,8.4-5.8,14.9-6.1c0,0,0.2,0,0.3,0c3.6,0,9.9,2.3,13.4,5.8
				c4.3,4.2,6.2,8.9,6.2,15.1s-1.9,11.2-6.1,15.4c-4.3,4.3-9.6,6.4-15.6,6.4L246.3,182.7z"/>
			<path class="st4" d="M129.1,130.2l-3-1.2c0,0-0.1,0-0.2,0h-9.5c-0.2,0-0.3,0.1-0.4,0.3l-14,34.9l-13.5-33.8
				c0-0.1-0.1-0.2-0.2-0.2l-2.3-0.9c0-0.2-0.2-0.3-0.4-0.3H75.5c-0.1,0-0.3,0-0.4,0.2s0,0.3,0,0.4L100,192l0,0c0,0.3,0,0.5,0.3,0.6
				l3.3,1.3c0,0,0.1,0,0.2,0c0.2,0,0.3-0.1,0.4-0.3l25.2-62.9c0-0.2,0-0.5-0.2-0.6L129.1,130.2z M84.1,131.4l16.4,41.1
				c0,0.2,0.2,0.3,0.4,0.3s0.3-0.1,0.4-0.3l16.4-41.1h5.6l-22.4,56l-22.4-56H84.1z"/>
			<path class="st4" d="M142,130.3c0-0.1-0.1-0.2-0.2-0.2l-3.1-1.2c-0.1,0-0.2,0-0.3,0s-0.2,0.1-0.2,0.2L113.1,192
				c0,0.2,0,0.5,0.2,0.6l3,1.3c0,0,0.1,0,0.2,0h9.6c0.2,0,0.3-0.1,0.4-0.3l3-7.4h21.9l2.5,6.2v0.2c0.2,0.2,0.3,0.3,0.5,0.3l2.6,1
				c0,0,0.1,0,0.2,0h9.9c0.1,0,0.3,0,0.4-0.2c0-0.1,0-0.3,0-0.4l-25.2-62.9L142,130.3z M161.2,190.3h-5.6l-3-7.4
				c0-0.2-0.2-0.3-0.4-0.3h-26.8c-0.2,0-0.3,0.1-0.4,0.3l-3,7.4h-5.7l22.4-56.1L161.2,190.3L161.2,190.3z"/>
			<path class="st4" d="M138.3,149.4l-10.9,27.4c0,0.1,0,0.3,0,0.4c0,0.1,0.2,0.2,0.4,0.2h21.9c0.1,0,0.3,0,0.4-0.2
				c0-0.1,0-0.3,0-0.4l-9.8-24.5l-1.1-2.8C139.1,149.2,138.5,149.2,138.3,149.4L138.3,149.4z M133.9,174.9l6.4-16l6.4,16H133.9
				L133.9,174.9z"/>
			<path class="st4" d="M198.1,130.2l-2.3-0.9c0-0.2-0.2-0.3-0.4-0.3h-39.7c-0.2,0-0.4,0.2-0.4,0.4v9.3c0,0.2,0.2,0.4,0.5,0.4h0.2
				l2.5,1c0,0,0.1,0,0.2,0h11.9v52.2c0,0.2,0.2,0.4,0.5,0.4h0.2l2.5,1c0,0,0.1,0,0.2,0h9c0.2,0,0.4-0.2,0.4-0.4v-53.2h14.8
				c0.2,0,0.4-0.2,0.4-0.4v-9.2c0-0.2-0.1-0.3-0.3-0.4L198.1,130.2z M172.4,136.7h-14.8v-5.2h35.7v5.2h-14.8c-0.2,0-0.4,0.2-0.4,0.4
				v53.2h-5.3v-53.2C172.8,136.9,172.6,136.7,172.4,136.7z"/>
			<path class="st4" d="M212.7,130.2l-2.4-0.9c0-0.2-0.2-0.3-0.4-0.3h-9.2c-0.2,0-0.4,0.2-0.4,0.4v62.8c0,0.2,0.1,0.3,0.3,0.4
				l2.9,1.2c0,0,0.1,0,0.2,0h8.9c0.2,0,0.4-0.2,0.4-0.4v-62.8C213,130.4,212.9,130.3,212.7,130.2z M207.9,131.5v58.8h-5.1v-58.8
				H207.9z"/>
		</g>
	</g>
</g>
</svg>
