<?xml version="1.0" encoding="utf-8"?>
<!-- Generator: Adobe Illustrator 27.0.0, SVG Export Plug-In . SVG Version: 6.00 Build 0)  -->
<svg version="1.1" id="Layer_2_00000140717178512251857960000010414498067598002863_"
	 xmlns="http://www.w3.org/2000/svg" xmlns:xlink="http://www.w3.org/1999/xlink" x="0px" y="0px" viewBox="0 0 48.4 36.9"
	 style="enable-background:new 0 0 48.4 36.9;" xml:space="preserve">
<style type="text/css">
	.st0{fill:#FFFFFF;}
</style>
<path class="st0" d="M10.1,24.5c-4.4,0.1-5.6-2.8-5.8-5c0,0-4.4-0.2-4.4-0.2c-0.1,2.5,1.2,4.7,2.2,5.8c3.4,3.6,10.1,3.9,13.8,0.7
	c2.2-1.9,2.7-4.9,1.7-7.7c-1.5-4.2-6.2-5.1-10-7.1c-1.9-1-3-3-2-5.1C6.3,4.4,8,3.3,9.7,3.3c1.8,0,4.1,0.8,4.1,3.8c0,0,4,0,4,0.1
	c0.5-7.3-9-8.9-13.4-5.7C2.1,3.2,0.8,6.9,1.8,9.7c1.2,3.1,4.4,4.6,7.1,5.7c3.1,1.2,5,3,5.1,4.8C14.2,22.2,12.9,24.5,10.1,24.5z"/>
<g>
	<path class="st0" d="M26.3,9.4c-0.9-0.3-3.2-1-5.1-1h-0.1c-3.8,0-7.1,1.4-9.8,4c-2.7,2.7-4,6-4,9.8c0,4,1.3,7.3,3.9,9.9
		c1.5,1.5,3.3,2.7,5.1,3.3l0.1,0.1c1.7,0.8,3.7,1.2,5.8,1.2c3.7,0,7-1.4,9.8-4.2c2.7-2.7,4-6,4-9.8s-1.4-7.1-4-9.8
		C30.3,11.2,27.9,10,26.3,9.4L26.3,9.4z M33.8,22.2c0,3.5-1.2,6.5-3.7,9c-2.5,2.5-5.5,3.7-9,3.7c-1.5,0-3-0.2-4.3-0.7
		c-1.7-0.6-3.3-1.6-4.7-3c-2.5-2.5-3.7-5.5-3.7-9s1.3-6.5,3.7-9c2.4-2.4,5.3-3.5,9-3.5c1.8,0,3.8,0.5,5.6,1.2
		c1.4,0.7,2.7,1.8,3.7,2.7C31.9,15.2,33.7,19.1,33.8,22.2L33.8,22.2z"/>
	<path class="st0" d="M25.7,12.6c-1.4-0.7-3-1-4.6-1c-2.9,0-5.5,1.1-7.5,3.1c-2.1,2.1-3.2,4.8-3.2,7.7s1,5.4,3.1,7.5l0,0
		c1.2,1.2,2.8,2.2,4.3,2.7c1,0.3,2,0.5,3.4,0.5c2.8,0,5.4-1.1,7.5-3.3c2.1-2.1,3.1-4.6,3.1-7.5s-1-5.4-3.1-7.5
		C27.7,13.8,26.7,13.1,25.7,12.6L25.7,12.6z M21.1,31.7c-1.1,0-2.1-0.2-3-0.5c-0.9-0.5-1.8-1.1-2.6-1.9c-1.9-1.9-2.8-4.1-2.8-6.8
		s0.9-4.9,2.8-6.8c1.8-1.8,3.6-2.5,6.5-2.6c0,0,0.1,0,0.1,0c1.6,0,4.3,1,5.8,2.5c1.8,1.8,2.7,3.8,2.7,6.5s-0.8,4.9-2.7,6.7
		C26,30.8,23.7,31.8,21.1,31.7L21.1,31.7z"/>
</g>
<path class="st0" d="M38.1,28.2h0.1c3.7,0,6.7-0.6,9.6-1.8l0.4-0.2V12.5h-9.8v3.4h5.8v7.5l-0.2,0.1c-1.5,0.6-3.5,1-5.4,1
	c-1.7,0-3.2-0.3-4.4-0.8c-3.7-1.5-6.1-5.2-6.1-9.5c0-4.3,2.4-8.2,6-9.7c1.2-0.5,2.5-0.8,4-0.8c2.5,0,4.9,0.8,6.6,2.2l0.5,0.4L48,3.2
	l-0.6-0.5C46.5,2,45.3,1.5,44,1c-1.8-0.6-3.8-0.9-5.8-0.9c-4.9,0-11.1,2.2-13.6,8.2c-2.3,5.3-1,12.3,3,16
	C30.3,26.8,33.9,28.2,38.1,28.2L38.1,28.2z"/>
</svg>
